<?xml version="1.0" standalone="no"?>
<!DOCTYPE svg PUBLIC "-//W3C//DTD SVG 20010904//EN"
 "http://www.w3.org/TR/2001/REC-SVG-20010904/DTD/svg10.dtd">
<svg version="1.0" xmlns="http://www.w3.org/2000/svg"
 width="540.000000pt" height="454.000000pt" viewBox="0 0 540.000000 454.000000"
 preserveAspectRatio="xMidYMid meet">

<g transform="translate(0.000000,454.000000) scale(0.100000,-0.100000)"
fill="#000000" stroke="none">
<path d="M806 3430 c-94 -83 -204 -436 -320 -1025 -45 -231 -79 -418 -181
-990 -30 -170 -57 -320 -60 -332 -4 -19 -1 -23 18 -23 26 0 21 -21 137 630
173 973 278 1419 383 1631 25 51 40 68 71 83 36 17 43 18 80 5 84 -29 132
-130 405 -859 132 -353 235 -562 323 -655 63 -68 87 -79 170 -77 51 1 92 18
123 52 18 20 16 20 -32 -4 -101 -51 -232 -23 -275 59 -11 19 -10 19 13 2 116
-85 225 -73 347 38 30 27 94 100 143 164 207 268 247 316 306 370 116 107 231
141 363 107 75 -19 140 -54 337 -177 228 -143 332 -176 526 -166 114 6 196 24
395 87 205 66 260 74 477 74 173 0 228 -4 410 -32 116 -17 261 -35 323 -38
109 -7 112 -6 112 14 0 22 -6 24 -180 37 -41 3 -169 20 -285 37 -173 26 -240
31 -385 31 -195 0 -266 -11 -485 -79 -242 -74 -302 -87 -420 -87 -172 -1 -277
37 -505 183 -223 143 -292 172 -415 172 -181 2 -279 -74 -533 -407 -210 -276
-280 -337 -382 -337 -61 1 -95 18 -146 74 -90 98 -176 279 -334 708 -175 475
-244 630 -315 708 -40 44 -44 46 -107 50 -62 4 -67 2 -102 -28z"/>
<path d="M890 3336 c0 -3 23 -17 50 -31 51 -26 69 -20 26 8 -26 18 -76 33 -76
23z"/>
<path d="M1250 2678 c0 -52 151 -432 243 -612 81 -159 144 -236 222 -273 51
-23 145 -32 145 -13 0 6 -17 10 -37 10 -81 1 -158 47 -219 128 -72 97 -198
374 -304 667 -33 91 -50 123 -50 93z"/>
<path d="M2980 2486 c0 -5 177 -119 218 -140 64 -33 43 -8 -40 47 -102 67
-178 107 -178 93z"/>
<path d="M1999 1863 c-13 -16 -12 -17 4 -4 9 7 17 15 17 17 0 8 -8 3 -21 -13z"/>
</g>
</svg>
